<svg viewBox="0 0 45 52" fill="none" xmlns="http://www.w3.org/2000/svg">
<path d="M22.174 30.3333L21.4081 30.9763L22.174 31.8886L22.9399 30.9763L22.174 30.3333ZM23.174 10.8333C23.174 10.2811 22.7263 9.83334 22.174 9.83334C21.6217 9.83334 21.174 10.2811 21.174 10.8333L23.174 10.8333ZM12.3132 20.143L21.4081 30.9763L22.9399 29.6904L13.845 18.857L12.3132 20.143ZM22.9399 30.9763L32.0348 20.143L30.503 18.857L21.4081 29.6904L22.9399 30.9763ZM23.174 30.3333L23.174 10.8333L21.174 10.8333L21.174 30.3333L23.174 30.3333Z" fill="white"/>
<path d="M9.44117 34.6667L9.44117 36.8333C9.44117 39.2266 11.0699 41.1667 13.0791 41.1667L31.2689 41.1667C33.2781 41.1667 34.9068 39.2266 34.9068 36.8333V34.6667" stroke="white" stroke-width="2"/>
</svg>
