<svg width="35" height="36" viewBox="0 0 35 36" fill="none" xmlns="http://www.w3.org/2000/svg">
<g id="Social Icons" clip-path="url(#clip0_50_31)">
<path id="Vector" fill-rule="evenodd" clip-rule="evenodd" d="M17.4278 0.88797C13.2906 0.890117 9.28899 2.35544 6.13861 5.02192C2.98823 7.68841 0.894467 11.3822 0.231706 15.4427C-0.431056 19.5033 0.380393 23.6659 2.52098 27.1861C4.66156 30.7064 7.99168 33.3548 11.9159 34.6578C12.7816 34.8185 13.1077 34.282 13.1077 33.8257C13.1077 33.3695 13.0904 32.0467 13.0846 30.6005C8.23647 31.6479 7.21201 28.5546 7.21201 28.5546C6.4213 26.5461 5.27852 26.0181 5.27852 26.0181C3.6971 24.945 5.39685 24.965 5.39685 24.965C7.14853 25.0884 8.06911 26.7527 8.06911 26.7527C9.62167 29.4011 12.1467 28.635 13.1395 28.1874C13.2953 27.0654 13.7484 26.3022 14.2476 25.8689C10.3749 25.4328 6.30587 23.9464 6.30587 17.3066C6.28186 15.5846 6.92452 13.9194 8.10085 12.6553C7.92193 12.2192 7.32456 10.4574 8.2711 8.06432C8.2711 8.06432 9.73422 7.59948 13.0644 9.84048C15.9209 9.06377 18.9347 9.06377 21.7911 9.84048C25.1184 7.59948 26.5787 8.06432 26.5787 8.06432C27.5281 10.4517 26.9307 12.2135 26.7518 12.6553C27.9319 13.9196 28.5759 15.5877 28.5497 17.3124C28.5497 23.9665 24.472 25.4328 20.5935 25.8603C21.2168 26.3997 21.7738 27.4528 21.7738 29.0711C21.7738 31.3896 21.7536 33.2547 21.7536 33.8257C21.7536 34.2877 22.0681 34.8271 22.9512 34.6578C26.8759 33.3547 30.2063 30.7058 32.3469 27.1849C34.4874 23.6641 35.2984 19.5008 34.6349 15.4399C33.9714 11.379 31.8766 7.68516 28.7252 5.01914C25.5737 2.35311 21.5713 0.888756 17.4335 0.88797H17.4278Z" fill="white"/>
<path id="Vector_2" d="M11.6587 29.1716C11.6587 29.3122 11.4971 29.4327 11.2893 29.4356C11.0815 29.4384 10.9113 29.3236 10.9113 29.183C10.9113 29.0424 11.0729 28.9219 11.2806 28.9191C11.4884 28.9162 11.6587 29.0281 11.6587 29.1716Z" fill="white"/>
<path id="Vector_3" d="M12.9862 28.9506C13.0121 29.0912 12.8678 29.2376 12.6601 29.272C12.4523 29.3064 12.2705 29.2232 12.2445 29.0855C12.2185 28.9478 12.3686 28.7985 12.5706 28.7612C12.7726 28.7239 12.9602 28.81 12.9862 28.9506Z" fill="white"/>
<path id="Vector_4" d="M10.233 29.074C10.1898 29.2089 9.99351 29.2691 9.79728 29.2118C9.60105 29.1544 9.47118 28.9937 9.5087 28.8559C9.54621 28.7182 9.74534 28.6551 9.94446 28.7182C10.1436 28.7813 10.2706 28.9334 10.233 29.074Z" fill="white"/>
<path id="Vector_5" d="M8.92581 28.5116C8.83057 28.6178 8.63723 28.5891 8.47851 28.4456C8.31979 28.3021 8.28226 28.107 8.3775 28.0037C8.47273 27.9004 8.66608 27.9291 8.83057 28.0697C8.99506 28.2103 9.02681 28.4083 8.92581 28.5116Z" fill="white"/>
<path id="Vector_6" d="M7.99372 27.5475C7.88694 27.6221 7.70513 27.5475 7.60412 27.3983C7.57619 27.3715 7.55399 27.3394 7.53881 27.3039C7.52364 27.2684 7.51581 27.2303 7.51581 27.1917C7.51581 27.1531 7.52364 27.1149 7.53881 27.0794C7.55399 27.0439 7.57619 27.0119 7.60412 26.9851C7.7109 26.9134 7.89271 26.9851 7.99372 27.1314C8.09472 27.2778 8.09761 27.4729 7.99372 27.5475Z" fill="white"/>
<path id="Vector_7" d="M7.30685 26.5518C7.24708 26.5818 7.17871 26.5901 7.11343 26.5755C7.04816 26.5608 6.99004 26.524 6.94901 26.4715C6.83646 26.351 6.81336 26.1845 6.89994 26.1099C6.98651 26.0353 7.14236 26.0698 7.2549 26.1903C7.36745 26.3108 7.39342 26.4772 7.30685 26.5518Z" fill="white"/>
<path id="Vector_8" d="M6.59981 25.7685C6.56229 25.8546 6.42377 25.8804 6.31123 25.8201C6.19868 25.7599 6.115 25.648 6.1554 25.559C6.1958 25.4701 6.33144 25.4471 6.44398 25.5074C6.55653 25.5676 6.6431 25.6824 6.59981 25.7685Z" fill="white"/>
</g>
<defs>
<clipPath id="clip0_50_31">
<rect width="34.8548" height="34.8548" fill="white" transform="translate(0 0.161835)"/>
</clipPath>
</defs>
</svg>
