<svg width="38" height="38" viewBox="0 0 38 38" fill="none" xmlns="http://www.w3.org/2000/svg">
<g id="Social Icons" clip-path="url(#clip0_50_33)">
<path id="Vector" d="M19.2738 3.50934C24.2406 3.50934 24.8288 3.53113 26.7821 3.61827C28.5975 3.69814 29.5778 4.00312 30.2313 4.25727C31.0954 4.5913 31.7199 4.99793 32.3662 5.6442C33.0197 6.29773 33.4191 6.91495 33.7531 7.77905C34.0072 8.43258 34.3122 9.42013 34.3921 11.2282C34.4792 13.1888 34.501 13.777 34.501 18.7365C34.501 23.7033 34.4792 24.2915 34.3921 26.2448C34.3122 28.0602 34.0072 29.0405 33.7531 29.694C33.4191 30.5581 33.0124 31.1826 32.3662 31.8288C31.7126 32.4824 31.0954 32.8818 30.2313 33.2158C29.5778 33.4699 28.5902 33.7749 26.7821 33.8548C24.8216 33.9419 24.2334 33.9637 19.2738 33.9637C14.307 33.9637 13.7189 33.9419 11.7655 33.8548C9.95019 33.7749 8.9699 33.4699 8.31637 33.2158C7.45227 32.8818 6.82778 32.4751 6.18152 31.8288C5.52799 31.1753 5.12861 30.5581 4.79459 29.694C4.54044 29.0405 4.23546 28.0529 4.15559 26.2448C4.06845 24.2842 4.04666 23.6961 4.04666 18.7365C4.04666 13.7697 4.06845 13.1815 4.15559 11.2282C4.23546 9.41287 4.54044 8.43258 4.79459 7.77905C5.12861 6.91495 5.53525 6.29047 6.18152 5.6442C6.83505 4.99067 7.45227 4.5913 8.31637 4.25727C8.9699 4.00312 9.95745 3.69814 11.7655 3.61827C13.7189 3.53113 14.307 3.50934 19.2738 3.50934ZM19.2738 0.161835C14.2272 0.161835 13.5954 0.183619 11.6131 0.270756C9.63795 0.357893 8.28007 0.677395 7.10372 1.13486C5.87654 1.61412 4.83816 2.24586 3.80704 3.28424C2.76866 4.31536 2.13691 5.35374 1.65766 6.57366C1.20019 7.75727 0.880689 9.10789 0.793553 11.083C0.706416 13.0726 0.684631 13.7044 0.684631 18.751C0.684631 23.7977 0.706416 24.4295 0.793553 26.4118C0.880689 28.3869 1.20019 29.7448 1.65766 30.9212C2.13691 32.1483 2.76866 33.1867 3.80704 34.2178C4.83816 35.249 5.87654 35.888 7.09646 36.36C8.28007 36.8174 9.63069 37.1369 11.6058 37.2241C13.5882 37.3112 14.2199 37.333 19.2666 37.333C24.3133 37.333 24.945 37.3112 26.9274 37.2241C28.9025 37.1369 30.2604 36.8174 31.4367 36.36C32.6566 35.888 33.695 35.249 34.7261 34.2178C35.7572 33.1867 36.3962 32.1483 36.8682 30.9284C37.3257 29.7448 37.6452 28.3942 37.7323 26.4191C37.8195 24.4367 37.8413 23.805 37.8413 18.7583C37.8413 13.7116 37.8195 13.0799 37.7323 11.0975C37.6452 9.12242 37.3257 7.76453 36.8682 6.58818C36.4108 5.35374 35.779 4.31536 34.7406 3.28424C33.7095 2.25312 32.6711 1.61412 31.4512 1.14213C30.2676 0.684656 28.917 0.365154 26.9419 0.278017C24.9523 0.183619 24.3205 0.161835 19.2738 0.161835Z" fill="white"/>
<path id="Vector_2" d="M19.2739 9.2023C14.0021 9.2023 9.7251 13.4793 9.7251 18.7511C9.7251 24.0228 14.0021 28.2998 19.2739 28.2998C24.5456 28.2998 28.8226 24.0228 28.8226 18.7511C28.8226 13.4793 24.5456 9.2023 19.2739 9.2023ZM19.2739 24.945C15.8537 24.945 13.0799 22.1712 13.0799 18.7511C13.0799 15.3309 15.8537 12.5571 19.2739 12.5571C22.694 12.5571 25.4678 15.3309 25.4678 18.7511C25.4678 22.1712 22.694 24.945 19.2739 24.945Z" fill="white"/>
<path id="Vector_3" d="M31.4295 8.82462C31.4295 10.0591 30.4274 11.0539 29.2002 11.0539C27.9658 11.0539 26.9709 10.0518 26.9709 8.82462C26.9709 7.59018 27.973 6.59537 29.2002 6.59537C30.4274 6.59537 31.4295 7.59744 31.4295 8.82462Z" fill="white"/>
</g>
<defs>
<clipPath id="clip0_50_33">
<rect width="37.1784" height="37.1784" fill="white" transform="translate(0.684631 0.161835)"/>
</clipPath>
</defs>
</svg>
