<svg width="33" height="34" viewBox="0 0 33 34" fill="none" xmlns="http://www.w3.org/2000/svg">
<g id="Social Icons" clip-path="url(#clip0_50_32)">
<path id="Vector" d="M30.1272 0.485474H2.40586C1.07793 0.485474 0.00415039 1.53384 0.00415039 2.83V30.6657C0.00415039 31.9619 1.07793 33.0166 2.40586 33.0166H30.1272C31.4551 33.0166 32.5353 31.9619 32.5353 30.6721V2.83C32.5353 1.53384 31.4551 0.485474 30.1272 0.485474ZM9.65547 28.2068H4.82664V12.6783H9.65547V28.2068ZM7.24105 10.5625C5.69074 10.5625 4.43906 9.31081 4.43906 7.76685C4.43906 6.2229 5.69074 4.97121 7.24105 4.97121C8.78501 4.97121 10.0367 6.2229 10.0367 7.76685C10.0367 9.30446 8.78501 10.5625 7.24105 10.5625ZM27.7255 28.2068H22.903V20.6586C22.903 18.8605 22.8712 16.5414 20.3933 16.5414C17.8836 16.5414 17.5023 18.5047 17.5023 20.5315V28.2068H12.6862V12.6783H17.3117V14.8004H17.3753C18.017 13.5805 19.5927 12.2907 21.9372 12.2907C26.8233 12.2907 27.7255 15.5057 27.7255 19.6865V28.2068Z" fill="white"/>
</g>
<defs>
<clipPath id="clip0_50_32">
<rect width="32.5311" height="32.5311" fill="white" transform="translate(0.00415039 0.485474)"/>
</clipPath>
</defs>
</svg>
