<svg viewBox="0 0 379 298" fill="none" xmlns="http://www.w3.org/2000/svg">
<path fill-rule="evenodd" clip-rule="evenodd" d="M136.228 94.5968V54.8182L189.5 27.3241L351.657 188.779L297.8 216.273L189.5 108.636V148.415L164.328 141.98H149.107V148.415L243.943 243.182L190.085 270.091L27.9286 108.636L81.7857 81.1423L136.228 94.5968Z" fill="#131217"/>
<path fill-rule="evenodd" clip-rule="evenodd" d="M188.915 1L109.3 40.7787V60.668L81.7857 54.8182L1 94.5968V202.233L190.085 297L270.286 256.051V230.312L298.385 243.182L378 202.818V188.779L188.915 1ZM136.228 54.8182V94.5968L81.7857 81.1423L27.9286 108.636L190.085 270.091L243.943 243.182L149.107 148.415V141.98H164.328L189.5 148.415V108.636L297.8 216.273L351.657 188.779L189.5 27.3241L136.228 54.8182Z" fill="#F7F6FB"/>
<path fill-rule="evenodd" clip-rule="evenodd" d="M136.228 94.5968V54.8182L189.5 27.3241L351.657 188.779L297.8 216.273L189.5 108.636V148.415L164.328 141.98H149.107V148.415L243.943 243.182L190.085 270.091L27.9286 108.636L81.7857 81.1423L136.228 94.5968Z" stroke="black"/>
<path fill-rule="evenodd" clip-rule="evenodd" d="M188.915 1L109.3 40.7787V60.668L81.7857 54.8182L1 94.5968V202.233L190.085 297L270.286 256.051V230.312L298.385 243.182L378 202.818V188.779L188.915 1ZM136.228 54.8182V94.5968L81.7857 81.1423L27.9286 108.636L190.085 270.091L243.943 243.182L149.107 148.415V141.98H164.328L189.5 148.415V108.636L297.8 216.273L351.657 188.779L189.5 27.3241L136.228 54.8182Z" stroke="black"/>
<path fill-rule="evenodd" clip-rule="evenodd" d="M136.228 94.5968V54.8182L189.5 27.3241L351.657 188.779L297.8 216.273L189.5 108.636V148.415L164.328 141.98H149.107V148.415L243.943 243.182L190.085 270.091L27.9286 108.636L81.7857 81.1423L136.228 94.5968Z" fill="#131217"/>
<path fill-rule="evenodd" clip-rule="evenodd" d="M188.915 1L109.3 40.7787V60.668L81.7857 54.8182L1 94.5968V202.233L190.085 297L270.286 256.051V230.312L298.385 243.182L378 202.818V188.779L188.915 1ZM136.228 54.8182V94.5968L81.7857 81.1423L27.9286 108.636L190.085 270.091L243.943 243.182L149.107 148.415V141.98H164.328L189.5 148.415V108.636L297.8 216.273L351.657 188.779L189.5 27.3241L136.228 54.8182Z" fill="#DDD8EE" fill-opacity="0.83"/>
<path fill-rule="evenodd" clip-rule="evenodd" d="M136.228 94.5968V54.8182L189.5 27.3241L351.657 188.779L297.8 216.273L189.5 108.636V148.415L164.328 141.98H149.107V148.415L243.943 243.182L190.085 270.091L27.9286 108.636L81.7857 81.1423L136.228 94.5968Z" stroke="black"/>
<path fill-rule="evenodd" clip-rule="evenodd" d="M188.915 1L109.3 40.7787V60.668L81.7857 54.8182L1 94.5968V202.233L190.085 297L270.286 256.051V230.312L298.385 243.182L378 202.818V188.779L188.915 1ZM136.228 54.8182V94.5968L81.7857 81.1423L27.9286 108.636L190.085 270.091L243.943 243.182L149.107 148.415V141.98H164.328L189.5 148.415V108.636L297.8 216.273L351.657 188.779L189.5 27.3241L136.228 54.8182Z" stroke="black"/>
</svg>
