<svg width="51" height="29" viewBox="0 0 51 29" fill="none" xmlns="http://www.w3.org/2000/svg">
<path id="Vector" d="M14.3117 0C10.5129 0.00893224 6.87276 1.52426 4.18976 4.21357C1.50676 6.90289 0 10.5466 0 14.3454C0 18.1442 1.50676 21.7879 4.18976 24.4772C6.87276 27.1665 10.5129 28.6819 14.3117 28.6908C18.1105 28.6819 21.7507 27.1665 24.4336 24.4772C27.1166 21.7879 28.6234 18.1442 28.6234 14.3454C28.6234 10.5466 27.1166 6.90289 24.4336 4.21357C21.7507 1.52426 18.1105 0.00893224 14.3117 0ZM36.6711 0.84375C34.7715 0.852415 32.9514 2.27873 31.6098 4.80984C30.2683 7.34095 29.5149 10.7702 29.5149 14.3454C29.5149 17.9206 30.2683 21.3498 31.6098 23.881C32.9514 26.4121 34.7715 27.8384 36.6711 27.847C38.5706 27.8384 40.3908 26.4121 41.7323 23.881C43.0739 21.3498 43.8273 17.9206 43.8273 14.3454C43.8273 10.7702 43.0739 7.34095 41.7323 4.80984C40.3908 2.27873 38.5706 0.852415 36.6711 0.84375ZM47.6415 1.6875C47.253 1.68333 46.8682 2.00766 46.5091 2.64192C46.15 3.27617 45.8235 4.20788 45.5485 5.38369C45.2735 6.5595 45.0553 7.9563 44.9065 9.4941C44.7576 11.0319 44.681 12.6805 44.681 14.3454C44.681 16.0103 44.7576 17.6589 44.9065 19.1967C45.0553 20.7345 45.2735 22.1313 45.5485 23.3071C45.8235 24.4829 46.15 25.4146 46.5091 26.0489C46.8682 26.6831 47.253 27.0075 47.6415 27.0033C48.0299 27.0075 48.4147 26.6831 48.7739 26.0489C49.133 25.4146 49.4594 24.4829 49.7344 23.3071C50.0094 22.1313 50.2276 20.7345 50.3765 19.1967C50.5254 17.6589 50.602 16.0103 50.602 14.3454C50.602 12.6805 50.5254 11.0319 50.3765 9.4941C50.2276 7.9563 50.0094 6.5595 49.7344 5.38369C49.4594 4.20788 49.133 3.27617 48.7739 2.64192C48.4147 2.00766 48.0299 1.68333 47.6415 1.6875Z" fill="white"/>
</svg>
