<svg width="43" height="43" viewBox="0 0 43 43" fill="none" xmlns="http://www.w3.org/2000/svg">
<g id="Social Icons" clip-path="url(#clip0_50_34)">
<path id="Vector" d="M13.5359 38.9575C29.7536 38.9575 38.6265 25.518 38.6265 13.8669C38.6265 13.4891 38.6181 13.1028 38.6013 12.725C40.3274 11.4768 41.8169 9.93065 43 8.15928C41.3925 8.87449 39.6857 9.34159 37.9381 9.54462C39.7782 8.44158 41.1561 6.70876 41.8162 4.66738C40.085 5.69333 38.1918 6.41706 36.2177 6.80752C34.8876 5.39422 33.129 4.45844 31.2137 4.14488C29.2984 3.83131 27.3332 4.15741 25.6218 5.07277C23.9105 5.98813 22.5483 7.44176 21.746 9.20892C20.9436 10.9761 20.7458 12.9583 21.183 14.8492C17.6776 14.6733 14.2484 13.7627 11.1175 12.1765C7.98669 10.5902 5.22414 8.36372 3.00899 5.64132C1.88313 7.58243 1.53861 9.8794 2.04546 12.0654C2.55231 14.2514 3.87249 16.1624 5.73769 17.41C4.33741 17.3655 2.9678 16.9885 1.74203 16.3101V16.4193C1.74077 18.4563 2.44501 20.431 3.73501 22.0075C5.02502 23.584 6.82118 24.6652 8.81818 25.0672C7.52104 25.4221 6.15964 25.4738 4.83932 25.2183C5.40283 26.9702 6.49922 28.5024 7.97548 29.6012C9.45174 30.6999 11.2342 31.3104 13.0741 31.3474C9.9505 33.801 6.09192 35.1319 2.11985 35.1256C1.41543 35.1245 0.711714 35.0813 0.0124512 34.9963C4.04765 37.5851 8.74167 38.96 13.5359 38.9575Z" fill="white"/>
</g>
<defs>
<clipPath id="clip0_50_34">
<rect width="42.9876" height="42.9876" fill="white" transform="translate(0.0124512)"/>
</clipPath>
</defs>
</svg>
